<svg width="58" height="55" viewBox="0 0 58 55" fill="none" xmlns="http://www.w3.org/2000/svg">
<path d="M29 0.899994C13.112 0.899994 0.200012 10.1805 0.200012 21.6C0.200012 28.569 5.81601 34.3995 12.344 38.4705C14.408 39.747 18.008 41.7825 21.224 44.784C24.776 48.1305 27.992 51.7185 29 54.1335C30.008 51.7185 33.224 48.1305 36.776 44.784C39.992 41.7825 43.592 39.747 45.656 38.4705C52.184 34.3995 57.8 28.569 57.8 21.6C57.8 10.1805 44.888 0.899994 29 0.899994ZM29 9.73199C31.1684 9.73199 33.3156 10.039 35.3189 10.6354C37.3222 11.2318 39.1425 12.106 40.6758 13.208C42.209 14.3101 43.4253 15.6184 44.2551 17.0583C45.0849 18.4982 45.512 20.0415 45.512 21.6C45.512 23.1585 45.0849 24.7018 44.2551 26.1417C43.4253 27.5816 42.209 28.8899 40.6758 29.9919C39.1425 31.094 37.3222 31.9682 35.3189 32.5646C33.3156 33.161 31.1684 33.468 29 33.468C24.6208 33.468 20.4209 32.2176 17.3243 29.9919C14.2277 27.7663 12.488 24.7476 12.488 21.6C12.488 18.4524 14.2277 15.4337 17.3243 13.208C20.4209 10.9824 24.6208 9.73199 29 9.73199Z" fill="black"/>
</svg>
