<svg width="60" height="60" viewBox="0 0 122 79" fill="none" xmlns="http://www.w3.org/2000/svg">
<path d="M61 7.89999C40.809 7.89999 24.4 18.5255 24.4 31.6C24.4 39.579 31.537 46.2545 39.833 50.9155C42.456 52.377 47.031 54.7075 51.118 58.144C55.632 61.9755 59.719 66.0835 61 68.8485C62.281 66.0835 66.368 61.9755 70.882 58.144C74.969 54.7075 79.544 52.377 82.167 50.9155C90.463 46.2545 97.6 39.579 97.6 31.6C97.6 18.5255 81.191 7.89999 61 7.89999ZM61 18.012C63.7556 18.012 66.4843 18.3635 69.0302 19.0463C71.5761 19.7292 73.8894 20.7301 75.8379 21.9918C77.7865 23.2536 79.3321 24.7515 80.3867 26.4001C81.4412 28.0487 81.984 29.8156 81.984 31.6C81.984 33.3844 81.4412 35.1513 80.3867 36.7999C79.3321 38.4485 77.7865 39.9464 75.8379 41.2082C73.8894 42.4699 71.5761 43.4708 69.0302 44.1537C66.4843 44.8365 63.7556 45.188 61 45.188C55.4347 45.188 50.0973 43.7564 46.1621 41.2082C42.2268 38.6599 40.016 35.2038 40.016 31.6C40.016 27.9962 42.2268 24.5401 46.1621 21.9918C50.0973 19.4436 55.4347 18.012 61 18.012Z" fill="black"/>
<path d="M59.571 23.272V25.048H52.299V30.688H58.203V32.464H52.299V40H50.115V23.272H59.571ZM69.0488 31.648L74.1848 40H71.7128L67.7048 33.472L63.8888 40H61.4648L66.5768 31.648L61.4408 23.272H63.8888L67.9208 29.824L71.7608 23.272H74.2088L69.0488 31.648Z" fill="#0D86CA"/>
<path d="M84 29.5C84 33.3368 81.6418 36.9374 77.5664 39.6254C73.4991 42.3081 67.8216 44 61.5 44C55.1784 44 49.5009 42.3081 45.4336 39.6254C41.3582 36.9374 39 33.3368 39 29.5C39 25.6632 41.3582 22.0626 45.4336 19.3746C49.5009 16.6919 55.1784 15 61.5 15C67.8216 15 73.4991 16.6919 77.5664 19.3746C81.6418 22.0626 84 25.6632 84 29.5Z" stroke="#0D86CA" stroke-width="2"/>
</svg>
