<svg width="127" height="147" viewBox="0 0 127 147" fill="none" xmlns="http://www.w3.org/2000/svg">
<path d="M51.6233 24.18V28.62H33.4433V42.72H48.2033V47.16H33.4433V66H27.9833V24.18H51.6233ZM75.3176 45.12L88.1576 66H81.9776L71.9576 49.68L62.4176 66H56.3576L69.1376 45.12L56.2976 24.18H62.4176L72.4976 40.56L82.0976 24.18H88.2176L75.3176 45.12Z" fill="#0D86CA"/>
<path d="M113.115 42.5C113.115 53.8477 106.943 64.1999 96.8062 71.7501C86.6698 79.3003 72.6199 84 57.0577 84C41.4955 84 27.4456 79.3003 17.3092 71.7501C7.17283 64.1999 1 53.8477 1 42.5C1 31.1523 7.17283 20.8001 17.3092 13.2499C27.4456 5.69974 41.4955 1 57.0577 1C72.6199 1 86.6698 5.69974 96.8062 13.2499C106.943 20.8001 113.115 31.1523 113.115 42.5Z" stroke="#0D86CA" stroke-width="2"/>
<path d="M29.912 105.304V111.88H16.184V118.984H26.456V125.368H16.184V139H7.976V105.304H29.912ZM38.354 109.432C36.914 109.432 35.73 109.016 34.802 108.184C33.906 107.32 33.458 106.264 33.458 105.016C33.458 103.736 33.906 102.68 34.802 101.848C35.73 100.984 36.914 100.552 38.354 100.552C39.762 100.552 40.914 100.984 41.81 101.848C42.738 102.68 43.202 103.736 43.202 105.016C43.202 106.264 42.738 107.32 41.81 108.184C40.914 109.016 39.762 109.432 38.354 109.432ZM42.434 112.216V139H34.226V112.216H42.434ZM63.3103 132.04V139H59.1343C56.1583 139 53.8383 138.28 52.1743 136.84C50.5103 135.368 49.6783 132.984 49.6783 129.688V119.032H46.4143V112.216H49.6783V105.688H57.8863V112.216H63.2623V119.032H57.8863V129.784C57.8863 130.584 58.0783 131.16 58.4623 131.512C58.8463 131.864 59.4863 132.04 60.3823 132.04H63.3103ZM72.0103 109.432C70.5703 109.432 69.3863 109.016 68.4583 108.184C67.5623 107.32 67.1143 106.264 67.1143 105.016C67.1143 103.736 67.5623 102.68 68.4583 101.848C69.3863 100.984 70.5703 100.552 72.0103 100.552C73.4183 100.552 74.5703 100.984 75.4663 101.848C76.3943 102.68 76.8583 103.736 76.8583 105.016C76.8583 106.264 76.3943 107.32 75.4663 108.184C74.5703 109.016 73.4183 109.432 72.0103 109.432ZM76.0903 112.216V139H67.8823V112.216H76.0903ZM97.8785 139L92.7425 131.56L88.4225 139H79.5425L88.3745 125.32L79.3025 112.216H88.5185L93.6545 119.608L97.9745 112.216H106.855L97.8785 125.704L107.095 139H97.8785Z" fill="white"/>
</svg>
