<svg width="208" height="89" viewBox="0 0 208 89" fill="none" xmlns="http://www.w3.org/2000/svg">
<path d="M40.5548 24.18V28.62H22.3748V42.72H37.1348V47.16H22.3748V66H16.9148V24.18H40.5548ZM64.2492 45.12L77.0892 66H70.9092L60.8892 49.68L51.3492 66H45.2892L58.0692 45.12L45.2292 24.18H51.3492L61.4292 40.56L71.0292 24.18H77.1492L64.2492 45.12Z" fill="#0D86CA"/>
<path d="M91 44.5C91 68.4934 70.8843 88 46 88C21.1157 88 1 68.4934 1 44.5C1 20.5066 21.1157 1 46 1C70.8843 1 91 20.5066 91 44.5Z" stroke="#0D86CA" stroke-width="2"/>
<path d="M130.76 29.92V35.4H119.32V41.32H127.88V46.64H119.32V58H112.48V29.92H130.76ZM137.795 33.36C136.595 33.36 135.608 33.0133 134.835 32.32C134.088 31.6 133.715 30.72 133.715 29.68C133.715 28.6133 134.088 27.7333 134.835 27.04C135.608 26.32 136.595 25.96 137.795 25.96C138.968 25.96 139.928 26.32 140.675 27.04C141.448 27.7333 141.835 28.6133 141.835 29.68C141.835 30.72 141.448 31.6 140.675 32.32C139.928 33.0133 138.968 33.36 137.795 33.36ZM141.195 35.68V58H134.355V35.68H141.195ZM158.592 52.2V58H155.112C152.632 58 150.699 57.4 149.312 56.2C147.925 54.9733 147.232 52.9867 147.232 50.24V41.36H144.512V35.68H147.232V30.24H154.072V35.68H158.552V41.36H154.072V50.32C154.072 50.9867 154.232 51.4667 154.552 51.76C154.872 52.0533 155.405 52.2 156.152 52.2H158.592ZM165.842 33.36C164.642 33.36 163.655 33.0133 162.882 32.32C162.135 31.6 161.762 30.72 161.762 29.68C161.762 28.6133 162.135 27.7333 162.882 27.04C163.655 26.32 164.642 25.96 165.842 25.96C167.015 25.96 167.975 26.32 168.722 27.04C169.495 27.7333 169.882 28.6133 169.882 29.68C169.882 30.72 169.495 31.6 168.722 32.32C167.975 33.0133 167.015 33.36 165.842 33.36ZM169.242 35.68V58H162.402V35.68H169.242ZM187.399 58L183.119 51.8L179.519 58H172.119L179.479 46.6L171.919 35.68H179.599L183.879 41.84L187.479 35.68H194.879L187.399 46.92L195.079 58H187.399Z" fill="white"/>
</svg>

