<svg width="104" height="65" viewBox="0 0 104 65" fill="none" xmlns="http://www.w3.org/2000/svg">
<path d="M103.5 32.5C103.5 41.24 97.8305 49.2283 88.5046 55.057C79.1857 60.8813 66.2807 64.5 52 64.5C37.7193 64.5 24.8143 60.8813 15.4954 55.057C6.16954 49.2283 0.5 41.24 0.5 32.5C0.5 23.76 6.16954 15.7717 15.4954 9.94303C24.8143 4.11874 37.7193 0.5 52 0.5C66.2807 0.5 79.1857 4.11874 88.5046 9.94303C97.8305 15.7717 103.5 23.76 103.5 32.5Z" fill="#0D86CA" stroke="black"/>
<path d="M60.346 18.614C63.8214 20.6661 65.9966 23.3597 66.5077 26.2443C67.0189 29.1289 65.8349 32.0295 63.154 34.461C63.622 34.691 64.012 34.944 64.558 35.174C65.338 35.542 66.391 36.002 67.717 36.531C69.043 37.083 69.901 37.428 70.291 37.612C71.929 38.325 73.138 38.923 73.957 39.406C75.205 40.142 76.297 40.901 77.233 41.706C78.208 42.511 78.949 43.293 79.534 44.098C80.08 44.903 80.353 45.662 80.236 46.398C80.158 47.134 79.69 47.755 78.832 48.261C77.974 48.767 76.921 49.043 75.673 49.089C74.464 49.135 73.138 48.997 71.812 48.652C70.447 48.33 69.082 47.87 67.756 47.295C66.391 46.743 65.104 46.099 63.856 45.363C63.037 44.88 62.023 44.167 60.853 43.224C60.463 42.925 59.878 42.419 59.02 41.706C58.162 40.97 57.46 40.395 56.836 39.912C56.212 39.452 55.705 39.107 55.12 38.762C51.072 40.012 46.4531 40.4675 41.9357 40.0621C37.4184 39.6567 33.2383 38.4116 30.004 36.508C21.658 31.563 21.658 23.536 30.004 18.614C31.9954 17.4382 34.3603 16.5054 36.9635 15.8689C39.5667 15.2325 42.357 14.9049 45.175 14.9049C47.993 14.9049 50.7833 15.2325 53.3865 15.8689C55.9897 16.5054 58.3546 17.4382 60.346 18.614V18.614ZM54.847 33.242C57.3948 31.7285 58.8246 29.6822 58.8246 27.5495C58.8246 25.4168 57.3948 23.3706 54.847 21.857C53.5808 21.108 52.0764 20.5138 50.42 20.1083C48.7636 19.7029 46.9879 19.4942 45.1945 19.4942C43.4011 19.4942 41.6254 19.7029 39.969 20.1083C38.3126 20.5138 36.8082 21.108 35.542 21.857C34.272 22.6038 33.2644 23.491 32.5769 24.4678C31.8893 25.4446 31.5354 26.4919 31.5354 27.5495C31.5354 28.6072 31.8893 29.6544 32.5769 30.6312C33.2644 31.608 34.272 32.4953 35.542 33.242C36.8082 33.991 38.3126 34.5852 39.969 34.9907C41.6254 35.3962 43.4011 35.6049 45.1945 35.6049C46.9879 35.6049 48.7636 35.3962 50.42 34.9907C52.0764 34.5852 53.5808 33.991 54.847 33.242V33.242Z" fill="black"/>
</svg>
