<svg width="57" height="35" viewBox="0 0 57 35" fill="none" xmlns="http://www.w3.org/2000/svg">
<path d="M36.6015 3.70911C40.0769 5.76117 42.2521 8.4548 42.7632 11.3394C43.2744 14.224 42.0904 17.1246 39.4095 19.5561C39.8775 19.7861 40.2675 20.0391 40.8135 20.2691C41.5935 20.6371 42.6465 21.0971 43.9725 21.6261C45.2985 22.1781 46.1565 22.5231 46.5465 22.7071C48.1845 23.4201 49.3935 24.0181 50.2125 24.5011C51.4605 25.2371 52.5525 25.9961 53.4885 26.8011C54.4635 27.6061 55.2045 28.3881 55.7895 29.1931C56.3355 29.9981 56.6085 30.7571 56.4915 31.4931C56.4135 32.2291 55.9455 32.8501 55.0875 33.3561C54.2295 33.8621 53.1765 34.1381 51.9285 34.1841C50.7195 34.2301 49.3935 34.0921 48.0675 33.7471C46.7025 33.4251 45.3375 32.9651 44.0115 32.3901C42.6465 31.8381 41.3595 31.1941 40.1115 30.4581C39.2925 29.9751 38.2785 29.2621 37.1085 28.3191C36.7185 28.0201 36.1335 27.5141 35.2755 26.8011C34.4175 26.0651 33.7155 25.4901 33.0915 25.0071C32.4675 24.5471 31.9605 24.2021 31.3755 23.8571C27.3275 25.1071 22.7086 25.5626 18.1912 25.1572C13.6738 24.7518 9.49378 23.5067 6.2595 21.6031C-2.0865 16.6581 -2.0865 8.63111 6.2595 3.70911C8.25093 2.53327 10.6158 1.60046 13.219 0.964023C15.8222 0.327585 18.6125 0 21.4305 0C24.2485 0 27.0388 0.327585 29.642 0.964023C32.2452 1.60046 34.6101 2.53327 36.6015 3.70911V3.70911ZM31.1025 18.3371C33.6503 16.8236 35.0801 14.7773 35.0801 12.6446C35.0801 10.5119 33.6503 8.46566 31.1025 6.95211C29.8363 6.20314 28.3319 5.60889 26.6755 5.20343C25.0191 4.79796 23.2434 4.58925 21.45 4.58925C19.6566 4.58925 17.8809 4.79796 16.2245 5.20343C14.5681 5.60889 13.0637 6.20314 11.7975 6.95211C10.5275 7.69886 9.51987 8.58607 8.83235 9.5629C8.14482 10.5397 7.79091 11.587 7.79091 12.6446C7.79091 13.7022 8.14482 14.7495 8.83235 15.7263C9.51987 16.7031 10.5275 17.5904 11.7975 18.3371C13.0637 19.0861 14.5681 19.6803 16.2245 20.0858C17.8809 20.4913 19.6566 20.7 21.45 20.7C23.2434 20.7 25.0191 20.4913 26.6755 20.0858C28.3319 19.6803 29.8363 19.0861 31.1025 18.3371V18.3371Z" fill="black"/>
</svg>






